<svg xmlns="http://www.w3.org/2000/svg" viewBox="0 0 512 512">
  <rect width="512" height="512" rx="96" fill="#0d0f18"/>
  <circle cx="356" cy="156" r="64" fill="#fbbf24"/>
  <g stroke="#fbbf24" stroke-width="16" stroke-linecap="round">
    <line x1="356" y1="56" x2="356" y2="20"/>
    <line x1="356" y1="292" x2="356" y2="256"/>
    <line x1="256" y1="156" x2="220" y2="156"/>
    <line x1="492" y1="156" x2="456" y2="156"/>
    <line x1="285" y1="85" x2="260" y2="60"/>
    <line x1="452" y1="252" x2="427" y2="227"/>
    <line x1="285" y1="227" x2="260" y2="252"/>
    <line x1="452" y1="60" x2="427" y2="85"/>
  </g>
  <path d="M168 96 a44 44 0 0 1 44 44 v176 a72 72 0 1 1 -88 0 v-176 a44 44 0 0 1 44 -44 z"
        fill="#161929" stroke="#818cf8" stroke-width="16"/>
  <circle cx="168" cy="372" r="40" fill="#f87171"/>
  <rect x="160" y="180" width="16" height="170" rx="8" fill="#f87171"/>
</svg>
